<svg width="14" height="19" viewBox="0 0 14 19" fill="none" xmlns="http://www.w3.org/2000/svg">
<path d="M6.33751 1.77978C6.50788 1.60452 6.74097 1.50393 6.98558 1.50011C7.10912 1.49818 7.2318 1.52104 7.34633 1.56732C7.46087 1.61359 7.56494 1.68236 7.65236 1.76953C7.73979 1.8567 7.8088 1.9605 7.8553 2.07479C7.9018 2.18908 7.92485 2.31152 7.92308 2.43486V3.10083C9.33661 3.23375 10.5204 4.20403 10.8834 5.5451C10.9151 5.66195 10.9234 5.78389 10.9079 5.90395C10.8923 6.02401 10.8533 6.13984 10.7929 6.24482C10.7325 6.3498 10.652 6.44188 10.556 6.51579C10.4599 6.58971 10.3503 6.64402 10.2332 6.67562C10.1162 6.70722 9.99403 6.71549 9.87377 6.69995C9.75352 6.68442 9.63751 6.64539 9.53237 6.58509C9.42722 6.52479 9.33501 6.44441 9.26099 6.34852C9.18696 6.25264 9.13259 6.14314 9.10096 6.02628C8.92484 5.37571 8.33486 4.89233 7.61538 4.89233H7.14784C7.04874 4.90859 6.94765 4.90859 6.84856 4.89233H6.53846C5.59312 4.89233 4.84615 5.63807 4.84615 6.58185C4.84615 7.52562 5.59312 8.27136 6.53846 8.27136H7.76923C9.8824 8.27136 11.6154 10.0015 11.6154 12.1112C11.6154 14.1665 9.96185 15.8338 7.92308 15.9198V16.5653C7.92481 16.6874 7.90221 16.8087 7.8566 16.922C7.81098 17.0353 7.74326 17.1385 7.65738 17.2254C7.57149 17.3124 7.46915 17.3815 7.35629 17.4286C7.24344 17.4757 7.12233 17.5 7 17.5C6.87767 17.5 6.75656 17.4757 6.6437 17.4286C6.53085 17.3815 6.42851 17.3124 6.34262 17.2254C6.25673 17.1385 6.18902 17.0353 6.1434 16.922C6.09779 16.8087 6.07519 16.6874 6.07692 16.5653V15.8994C4.65314 15.7653 3.46302 14.7806 3.10937 13.4251C3.07499 13.3068 3.06471 13.1828 3.07914 13.0605C3.09356 12.9382 3.13241 12.82 3.19337 12.7129C3.25433 12.6058 3.33618 12.512 3.43407 12.437C3.53196 12.362 3.64392 12.3074 3.76331 12.2764C3.88271 12.2453 4.00713 12.2385 4.12922 12.2563C4.2513 12.274 4.36858 12.3161 4.47412 12.3799C4.57967 12.4437 4.67133 12.5279 4.74369 12.6277C4.81605 12.7275 4.86765 12.8407 4.89543 12.9607C5.06704 13.6185 5.65985 14.1079 6.38462 14.1079H7.76923C8.88437 14.1079 9.76923 13.2245 9.76923 12.1112C9.76923 10.9979 8.88437 10.1145 7.76923 10.1145H6.53846C4.59519 10.1145 3 8.52191 3 6.58185C3 4.80484 4.35864 3.37997 6.07692 3.14283V2.43486C6.07341 2.19066 6.16714 1.95505 6.33751 1.77978Z" fill="#00693F"/>
</svg>
