<?xml version="1.0" encoding="UTF-8"?>
<svg width="6px" height="22px" viewBox="0 0 6 22" version="1.1" xmlns="http://www.w3.org/2000/svg" xmlns:xlink="http://www.w3.org/1999/xlink">
    <title>Shape</title>
    <g id="Page-1" stroke="none" stroke-width="1" fill="none" fill-rule="evenodd">
        <g id="Estimate-Details---self-storage" transform="translate(-640.000000, -27.000000)" fill="#FFFFFF" fill-rule="nonzero">
            <g id="more" transform="translate(640.000000, 27.000000)">
                <path d="M3,-8.8817842e-16 C1.34314575,-8.8817842e-16 0,1.34314575 0,3 C0,4.65685425 1.34314575,6 3,6 C4.65685425,6 6,4.65685425 6,3 C6,1.34314575 4.65685425,-8.8817842e-16 3,-8.8817842e-16 Z M3,8 C1.34314575,8 0,9.34314575 0,11 C0,12.6568542 1.34314575,14 3,14 C4.65685425,14 6,12.6568542 6,11 C6,9.34314575 4.65685425,8 3,8 Z M3,16 C1.34314575,16 0,17.3431458 0,19 C0,20.6568542 1.34314575,22 3,22 C4.65685425,22 6,20.6568542 6,19 C6,17.3431458 4.65685425,16 3,16 Z" id="Shape"></path>
            </g>
        </g>
    </g>
</svg>