<svg xmlns="http://www.w3.org/2000/svg" width="157" height="168" viewBox="0 0 157 168"><g transform="translate(.243 .197)"><path d="M66.9449771,166.565718 C62.1610271,163.986918 58.6509971,159.913138 57.2732071,155.340568 C56.7520571,153.610978 56.6099571,153.503278 56.3140471,154.613618 C55.9368771,156.028808 54.5183571,158.628128 53.3624871,160.022108 C52.2280771,161.390198 50.5264271,162.746658 48.9293971,163.555938 L47.8856971,164.084818 L46.4517371,163.230518 C41.6928971,160.395388 36.4873771,155.588928 33.8270271,151.573638 C31.2001671,147.608888 30.2091871,144.465628 30.1963371,140.057588 C30.1839371,135.822728 31.0678271,132.372258 33.5432571,126.991318 L34.6620471,124.559358 L34.7541471,120.745288 C34.8816771,115.466178 34.4255571,111.416498 33.2381171,107.285288 L32.7895571,105.724698 L29.8630071,105.721698 C22.9586771,105.714698 15.9812671,105.050328 11.8502271,104.007018 C5.68033751,102.448768 2.07168751,99.4131599 0.519717502,94.4757269 C-0.187282498,92.2265049 -0.170392498,87.3730299 0.554717502,84.4146349 C2.37423751,76.9911269 6.38829751,68.8711769 13.2174371,58.7995029 C20.8407071,47.5566409 30.2362271,36.6172579 43.5410471,23.4931239 C58.0408471,9.19024756 69.5382271,1.00648016 76.4297331,0.0831498737 C80.7414741,-0.494541156 86.3508611,1.92294676 94.3466911,7.80485516 C103.555497,14.5790549 116.633727,27.1664129 128.208117,40.3953539 C135.929667,49.2206969 141.636797,56.8997599 146.624267,65.1746809 C152.793097,75.4095749 155.796927,83.5488329 155.784794,89.9960859 C155.776757,94.2696259 154.648317,97.2101869 152.019517,99.8083479 C148.029777,103.751608 141.788477,105.291868 128.222027,105.681228 L122.957217,105.832328 L122.485817,107.339098 C121.694057,109.869878 121.095247,113.976578 120.963547,117.778878 C120.796567,122.600208 121.052947,124.507328 122.196687,126.952668 C123.426057,129.581008 124.643877,133.026998 125.116407,135.214388 C125.696067,137.897678 125.646127,142.678458 125.014097,145.008408 C123.343357,151.167568 117.958947,157.545958 110.054557,162.729558 L107.932337,164.121278 L106.933387,163.640408 C103.792087,162.128288 100.786047,158.675758 99.6974261,155.329698 C99.4682701,154.625338 99.2155581,153.968778 99.1358461,153.870668 C99.0561361,153.772568 98.7760371,154.399728 98.5134071,155.264388 C97.2697641,159.358798 94.5253631,162.857958 90.3932761,165.617688 C87.7869541,167.358398 87.2641901,167.486768 85.8011101,166.745368 C81.9451841,164.791428 79.2051421,161.444498 78.2652591,157.540418 C77.8726971,155.909798 77.8466131,155.918218 77.4112071,157.815978 C76.5951311,161.372938 73.6542271,164.873268 69.8957271,166.761048 C69.3196671,167.050388 68.7171171,167.284918 68.5567271,167.282251 C68.3963371,167.279228 67.6710471,166.957108 66.9449771,166.565718 L66.9449771,166.565718 L66.9449771,166.565718 Z M70.2150571,157.479618 C70.9184271,157.057838 71.8641571,156.355578 72.3166871,155.919038 C74.7909511,153.532158 76.8045631,148.889588 77.4230681,144.145808 C77.7853841,141.366918 77.9632481,141.069718 78.1242331,142.974188 C78.4598281,146.944258 80.2114921,151.853918 82.2539241,154.549098 C83.6803991,156.431468 86.1712311,158.246488 87.3280131,158.246488 C88.2794771,158.246488 90.4349411,156.869708 92.0505911,155.229988 C95.1760801,152.057938 96.9844611,147.262878 97.5696681,140.595718 C97.6579981,139.589408 97.7621411,138.959798 97.8011011,139.196578 C98.0081711,140.455008 98.6383911,142.607748 99.2064421,143.996988 C99.8170171,145.490238 99.8685871,145.550928 100.240637,145.214228 C100.824107,144.686198 102.144507,144.275138 103.291437,144.264478 C105.440747,144.244478 108.162777,146.151258 108.958187,148.234008 C109.691497,150.154148 108.955187,152.700908 107.429797,153.517018 C106.825547,153.840398 106.835307,154.095338 107.467997,154.515438 C107.859877,154.775638 108.076797,154.675948 109.716357,153.482158 C112.088727,151.754798 114.631747,149.139678 115.719367,147.308948 C116.197907,146.503438 116.589627,145.801588 116.589837,145.749278 C116.590057,145.696978 116.013947,145.686778 115.309587,145.726578 C112.057427,145.910348 109.344937,143.928978 108.499087,140.751758 C108.334417,140.133208 108.199677,139.191238 108.199677,138.658478 C108.199677,135.382948 110.584457,131.603168 113.434437,130.361578 L114.799347,129.766958 L114.193447,128.347068 C113.860207,127.566128 113.584927,126.706198 113.581727,126.436108 C113.578727,126.166018 113.454817,125.910708 113.306837,125.868748 C113.158847,125.826748 112.620077,125.678838 112.109557,125.539968 C110.951057,125.224838 109.589997,124.019698 109.258627,123.015618 C109.120307,122.596518 109.047667,121.706918 109.097197,121.038718 C109.260897,118.830498 110.979027,117.106678 113.071897,117.050878 C113.901047,117.028778 114.037607,116.956878 114.141747,116.487398 C115.402747,110.803028 119.015837,100.685708 119.905587,100.347558 C120.153527,100.253358 121.926037,100.014578 123.844507,99.8169979 C135.978517,98.5673169 144.727907,95.3707619 146.774027,91.4397949 C147.469257,90.1041059 147.555147,87.0506739 146.966967,84.5798799 C145.144607,76.9245669 138.561457,65.7358199 127.809077,52.0190669 C113.144567,33.3115669 93.3231141,13.5523759 82.9932201,7.34392826 C79.4350591,5.20541076 77.7380541,4.94692156 75.0455871,6.13333756 C65.9579771,10.1377279 44.0562871,31.4438349 28.0985071,51.8037739 C17.0589271,65.8887579 10.4160171,77.2406089 8.70920751,84.9375019 C8.15909751,87.4182439 8.25597751,89.9501529 8.95637751,91.3969879 C10.8967771,95.4053239 20.0490971,98.6598379 33.1391371,99.9962379 C34.7747571,100.163228 36.1449871,100.333858 36.1840871,100.375428 C36.2231871,100.417028 36.8853971,102.049258 37.6556571,104.002678 C39.2315271,107.999178 40.1317371,110.727458 41.0552671,114.305868 C41.4025271,115.651418 41.7318771,116.825498 41.7871471,116.914918 C41.8424471,117.004318 42.1818071,117.136348 42.5413471,117.208258 C43.4874671,117.397488 45.0166571,119.062438 45.4541771,120.379708 C46.1635871,122.515548 45.2392271,124.689588 43.3081171,125.427088 C42.5631871,125.711578 42.2893971,125.942648 42.1958871,126.365808 C41.9446471,127.502678 41.8225471,127.828028 40.9148971,129.779248 C40.4054871,130.874348 40.0715171,131.770338 40.1727471,131.770338 C40.6068371,131.770338 41.7455071,132.987138 42.2636671,134.004728 C42.6602071,134.783468 42.8547471,135.562968 42.9267971,136.661848 C43.0164971,138.030208 42.9596971,138.357988 42.4539371,139.391828 C41.8021071,140.724128 40.5745271,141.681218 39.0133071,142.074338 L38.0618971,142.313908 L38.3855871,143.553538 C38.7586371,144.982238 39.6340771,146.825918 40.6194671,148.258138 C41.6286171,149.724888 44.2616671,152.251398 46.2177171,153.629858 L47.9322771,154.838138 L49.3566771,153.690208 C52.1704071,151.422608 55.1609671,147.447858 56.4791371,144.223748 C56.7867271,143.471418 57.2543171,142.032538 57.5182271,141.026228 L57.9980671,139.196588 L58.1192971,140.165218 C58.1859971,140.697968 58.2972171,141.673628 58.3665171,142.333348 L58.4925171,143.532828 L59.5611871,143.003948 C61.0202571,142.281868 63.1799871,142.132418 64.7384471,142.645688 C69.6480471,144.262648 72.4507071,149.532998 70.2472571,153.004888 C69.1840771,154.680108 68.1577271,155.434858 66.0471571,156.093528 L64.9054671,156.449818 L65.7242771,157.002718 C67.9112571,158.479468 68.4519071,158.536888 70.2150571,157.479618 L70.2150571,157.479618 L70.2150571,157.479618 Z"/><path d="M95.1717621 135.612298C92.8997121 134.780678 91.5487821 131.209948 92.6766371 129.017288 93.4539411 127.506128 95.2534941 126.287088 97.0756621 126.037328 98.3363781 125.864528 100.191347 126.420518 100.915707 127.188318 101.877497 128.207768 102.217787 130.295948 101.702427 132.016068 100.988277 134.399678 97.3429981 136.407018 95.1717621 135.612298L95.1717621 135.612298ZM85.2701151 152.503928C83.9452511 152.136018 82.8089211 150.514838 82.799397 148.979048 82.7930301 147.947338 83.7149051 146.162058 84.4906381 145.703828 85.9471161 144.843458 88.2327121 145.734928 89.1651241 147.526948 89.8633351 148.868888 89.3055771 151.495368 88.1774981 152.177668 87.6564041 152.492848 85.9284641 152.686758 85.2701151 152.503928ZM71.1774371 141.990428C68.0646371 140.583908 67.4393571 136.389798 69.8817971 133.299888 72.9600371 129.405618 78.2768451 131.675028 78.3290711 136.905508 78.3445211 138.453138 77.9373151 139.698498 77.1340321 140.560278 75.8246421 141.965008 72.7532171 142.702448 71.1774371 141.990428L71.1774371 141.990428 71.1774371 141.990428ZM81.4645571 128.878568C79.3472981 128.326248 78.0963231 126.611038 78.3258111 124.575028 78.5422961 122.654378 79.6927441 121.279928 81.4886681 120.796338 84.6533951 119.944158 87.6476211 124.561768 85.7700551 127.398958 84.8621221 128.770938 83.2179581 129.335968 81.4645571 128.878568ZM54.8927971 132.794358C53.9510771 131.967518 53.0948071 130.247028 53.0918598 129.175748 53.0888671 127.926478 54.0046771 126.384138 55.2534071 125.537178 57.0999571 124.284738 59.8396871 124.363308 61.1256771 125.705598 61.7824071 126.391068 62.2475871 128.371618 62.0102371 129.471678 61.4861771 131.900618 59.3955871 133.492368 56.7294871 133.492368 55.8616471 133.492368 55.5550871 133.375868 54.8927971 132.794358L54.8927971 132.794358ZM46.9550471 150.558098C46.2298271 150.381918 45.2047571 149.484978 44.8328071 148.701148 44.4045771 147.798718 44.3738571 146.001128 44.7704071 145.051948 45.2447671 143.916628 46.4946971 142.963508 47.5091971 142.963508 49.1909571 142.963508 51.1991471 144.536868 51.4889271 146.081508 51.8292071 147.895398 51.0384571 149.866638 49.7554871 150.402698 49.0345571 150.703918 47.8303171 150.770748 46.9549971 150.558098L46.9550471 150.558098ZM57.2487271 113.239148C54.7555471 113.005548 53.1133671 112.518188 50.3990971 111.206318 45.5713371 108.872958 41.8272271 104.960938 39.3058271 99.6155769 35.7616571 92.1019399 35.5954371 83.1732649 38.8512271 75.1967709 39.8509771 72.7474419 41.4104571 70.3445059 43.3334171 68.2903639 47.0129671 64.3597999 50.5418071 62.4278809 55.7570571 61.4888549 58.7940471 60.9420319 64.1672971 61.1304779 67.1888471 61.8897819 69.6614171 62.5111299 70.1294671 62.6898959 73.6464371 64.3561789 76.0733871 65.5060249 76.3270371 65.5799789 77.8438791 65.5799789 79.3733891 65.5799789 79.6054211 65.5105389 82.2565701 64.2594299 87.1882921 61.9320889 90.4534871 61.1696289 95.4946421 61.1681895 102.226987 61.1662909 107.436197 63.1991069 111.752047 67.5124699 115.130657 70.8891329 117.350037 75.1400459 118.562817 80.5575609 119.237497 83.5713519 119.291747 90.1625779 118.665337 93.0134449 116.819117 101.415818 112.077127 107.932158 105.405587 111.234688 101.939867 112.950278 98.3738081 113.578208 93.9704661 113.248248 89.9737331 112.948758 87.9383501 112.378228 84.1938491 110.507788 80.9033931 108.864148 79.8119301 108.522998 77.8438791 108.522998 75.8700461 108.522998 74.7743421 108.867798 71.4939071 110.521248 70.1916271 111.177638 68.3512171 111.955078 67.4040971 112.248888 64.4521071 113.164648 60.5326871 113.546828 57.2487271 113.239148L57.2487271 113.239148ZM64.9046771 105.272808C68.2614871 104.414278 71.7873471 102.249458 74.2657181 99.5252739 75.5605551 98.1020119 76.9392061 96.1067779 77.4052621 94.9816239 77.7260411 94.2071939 77.9729511 94.1361559 78.1713371 94.7612129 78.4941011 95.7781529 80.9446341 99.0819779 82.3816581 100.437588 86.6861001 104.498188 91.8906851 106.341458 97.3368391 105.734178 102.749157 105.130668 107.348567 102.487078 110.674267 98.0682489 118.490387 87.6830679 115.380577 72.0983569 104.303737 66.1424949 98.8889031 63.2310159 92.4918791 63.1541629 87.0066481 65.9346909 83.5080931 67.7081489 80.6366841 70.5391589 78.5790661 74.2437019 78.2339071 74.8651249 77.8981591 75.3736609 77.8329591 75.3737809 77.7677591 75.3739019 77.4948851 74.9221509 77.2265761 74.3698909 75.4099611 70.6307489 71.2778671 66.8683579 67.1471871 65.1923179 61.6584071 62.9652269 54.9501771 63.6697979 49.9906271 66.9942809 40.3846471 73.4333549 37.8167471 87.3176109 44.4126371 97.1535819 49.0141271 104.015438 57.1762871 107.249398 64.9046771 105.272808L64.9046771 105.272808Z"/><path d="M59.6630751 88.6511679C55.4980001 87.8744709 51.7701331 84.5218269 50.7601891 80.6443889 49.6321541 76.3135719 51.3810951 71.9910419 55.3356181 69.3361559 57.4153171 67.9399419 59.1716171 67.4089059 61.6987821 67.4121708 63.9175641 67.4150859 65.2789471 67.7171359 67.0036251 68.5892479 69.2204661 69.7102289 70.6687161 71.0655069 71.8396461 73.1148019 73.1838961 75.4674339 73.5565361 77.9657789 72.9248861 80.3908429 71.4347961 86.1116749 65.5847911 89.7554409 59.6630751 88.6511679L59.6630751 88.6511679 59.6630751 88.6511679ZM91.8133961 88.6511679C87.6483211 87.8744709 83.9204541 84.5218269 82.9105101 80.6443889 81.7824751 76.3135719 83.5314161 71.9910419 87.4859391 69.3361559 89.5656381 67.9399419 91.3219381 67.4089059 93.8491031 67.4121708 96.0678851 67.4150859 97.4292681 67.7171359 99.1539461 68.5892479 101.370787 69.7102289 102.819037 71.0655069 103.989967 73.1148019 105.334217 75.4674339 105.706857 77.9657789 105.075207 80.3908429 103.585117 86.1116749 97.7351121 89.7554409 91.8133961 88.6511679L91.8133961 88.6511679 91.8133961 88.6511679Z"/></g></svg>