<?xml version="1.0" encoding="UTF-8"?>
<svg width="385px" height="358px" viewBox="0 0 385 358" version="1.1" xmlns="http://www.w3.org/2000/svg" xmlns:xlink="http://www.w3.org/1999/xlink">
    <!-- Generator: Sketch 52.6 (67491) - http://www.bohemiancoding.com/sketch -->
    <title>Aurora Logo</title>
    <desc>Created with Sketch.</desc>
    <defs>
        <linearGradient x1="87.2569804%" y1="32.3667912%" x2="22.8037232%" y2="104.148929%" id="linearGradient-1">
            <stop stop-color="#FF009F" offset="24%"></stop>
            <stop stop-color="#A659C0" offset="35%"></stop>
            <stop stop-color="#5FA0DB" offset="45%"></stop>
            <stop stop-color="#2CD3EF" offset="53%"></stop>
            <stop stop-color="#0CF3FB" offset="59%"></stop>
            <stop stop-color="#00FFFF" offset="62%"></stop>
            <stop stop-color="#0BF3E8" offset="66%"></stop>
            <stop stop-color="#37BF8A" offset="79%"></stop>
            <stop stop-color="#48AB65" offset="85%"></stop>
            <stop stop-color="#99CC33" offset="99%"></stop>
        </linearGradient>
    </defs>
    <g id="Page-1" stroke="none" stroke-width="1" fill="none" fill-rule="evenodd">
        <g id="Aurora-Logo" fill="url(#linearGradient-1)" fill-rule="nonzero">
            <path d="M19.79,357.28 C13.0761551,357.258955 6.87185826,353.696172 3.46967154,347.908143 C0.0674848176,342.120114 -0.0274297146,334.966254 3.22,329.09 L181.9,9.72 C187.196332,0.977183261 198.460536,-2.00840104 207.391922,2.9633502 C216.323308,7.93510144 219.720466,19.0820888 215.08,28.19 L36.39,347.56 C33.0268046,353.56866 26.6758567,357.287408 19.79,357.28 Z M102.72,347.52 L248,86.29 C252.545142,77.1816604 249.104439,66.1094745 240.197456,61.181409 C231.290474,56.2533434 220.082087,59.2204637 214.78,67.91 L69.5,329.13 C64.9141365,338.243553 68.3443696,349.35205 77.2702552,354.293261 C86.1961408,359.234472 97.4311075,356.244369 102.72,347.52 Z M240.22,219.42 L281.36,145.42 C286.093751,136.288071 282.7009,125.047302 273.705288,120.059367 C264.709675,115.071433 253.378196,118.147778 248.14,127 L207,201 C202.383774,210.120533 205.811044,221.258701 214.75612,226.206353 C223.701197,231.154006 234.957579,228.137581 240.23,219.38 L240.22,219.42 Z M272.34,282.83 L315.83,206.83 C320.559579,197.767196 317.27063,186.586721 308.387076,181.52848 C299.503522,176.470238 288.21012,179.34761 282.83,188.04 L239.34,264.04 C234.610421,273.102804 237.89937,284.283279 246.782924,289.34152 C255.666478,294.399762 266.95988,291.52239 272.34,282.83 Z M305.66,340.69 L348.86,265.18 C353.273658,256.155537 349.899412,245.254778 341.159204,240.301994 C332.418995,235.349209 321.333682,238.056217 315.86,246.48 L272.62,322 C268.206342,331.024463 271.580588,341.925222 280.320796,346.878006 C289.061005,351.830791 300.146318,349.123783 305.62,340.7 L305.66,340.69 Z M367.59,348.09 L381.86,324.43 C386.715713,315.488701 383.665906,304.309225 374.942344,299.072408 C366.218782,293.835591 354.918176,296.40041 349.31,304.89 L335,328.56 C330.184034,337.497443 333.24518,348.641962 341.9508,353.865334 C350.656419,359.088706 361.930357,356.545237 367.55,348.09 L367.59,348.09 Z" id="Shape"></path>
        </g>
    </g>
</svg>